<svg version="1.1" id="Layer_1" xmlns="http://www.w3.org/2000/svg" xmlns:xlink="http://www.w3.org/1999/xlink" x="0px" y="0px"
	 viewBox="0 0 235 245" style="enable-background:new 0 0 231.4 244.6;" xml:space="preserve">
<style type="text/css">
	.st0{fill:url(#SVGID_1_);}
	.st1{fill:#FFFFFF;}
	.st2{fill:url(#SVGID_2_);}
	.st3{fill:url(#SVGID_3_);}
	.st4{fill:url(#SVGID_4_);}
	.st5{fill:url(#SVGID_5_);}
	.st6{fill:url(#SVGID_6_);}
	.st7{fill:#0F1041;}
	.st8{fill:url(#SVGID_7_);}
	.st9{fill:url(#SVGID_8_);}
	.st10{fill:url(#SVGID_9_);}
	.st11{fill:none;stroke:#2A2A2A;stroke-width:0.25;stroke-miterlimit:10;}
</style>
<g>
	
		<linearGradient id="SVGID_1_" gradientUnits="userSpaceOnUse" x1="121.1381" y1="-2025.7119" x2="121.1381" y2="-2031.6248" gradientTransform="matrix(1 0 0 1 0 2253.8896)">
		<stop  offset="2.584130e-03" style="stop-color:#362221"/>
		<stop  offset="0.1262" style="stop-color:#372220"/>
		<stop  offset="1" style="stop-color:#3C1E1B"/>
	</linearGradient>
	<path class="st0" d="M141.6,225.9c0,1.2-9.2,2.3-20.4,2.3s-20.4-1-20.4-2.3c0-1.3,9.1-3.6,20.4-3.6S141.7,224.7,141.6,225.9z"/>
	<path class="st1" d="M147.3,180.9l-3,5.9l3,1.8c0,0,54.5-48.8,72.7-75.2c18.7-27.2,13.7-59.5-8.9-77.5L147.3,180.9z"/>
	
		<linearGradient id="SVGID_2_" gradientUnits="userSpaceOnUse" x1="138.5923" y1="-2154.2034" x2="221.6402" y2="-2154.2034" gradientTransform="matrix(1 0 0 1 0 2253.8896)">
		<stop  offset="2.584130e-03" style="stop-color:#EE3370"/>
		<stop  offset="0.4404" style="stop-color:#EE2B59"/>
		<stop  offset="0.8075" style="stop-color:#EE2449"/>
		<stop  offset="1" style="stop-color:#EE2142"/>
	</linearGradient>
	<path class="st2" d="M138.6,186.8h5.7c0,0,59.7-66.6,72.5-96.3c13.2-30.7,0.6-75-48.2-77.9c0,0,29.3,18,5.1,85.7
		C151.3,161,138.6,186.8,138.6,186.8z"/>
	<path class="st1" d="M92.1,180.9l5.8,5.9l-3.9,2.5c0,0-65.7-49.5-83.8-75.9C-8.6,86.2-1,46.7,29.2,35L92.1,180.9z"/>
	
		<linearGradient id="SVGID_3_" gradientUnits="userSpaceOnUse" x1="11.3894" y1="-2154.2034" x2="103.5887" y2="-2154.2034" gradientTransform="matrix(1 0 0 1 0 2253.8896)">
		<stop  offset="2.584130e-03" style="stop-color:#EE3370"/>
		<stop  offset="0.4404" style="stop-color:#EE2B59"/>
		<stop  offset="0.8075" style="stop-color:#EE2449"/>
		<stop  offset="1" style="stop-color:#EE2142"/>
	</linearGradient>
	<path class="st3" d="M103.6,186.8h-5.7c0,0-69.9-66.6-82.6-96.3c-13.2-30.7,7.6-75,56.4-77.9c0,0-29.3,18-5.5,85.7
		C88.3,161,103.6,186.8,103.6,186.8z"/>
	<path class="st1" d="M106.8,2.1c0,0-23.8,17.6-13.8,90.9c9.3,67.5,15.5,92.2,15.5,92.2l-4.9,1.6c0,0-68.3-81.8-70.2-122.3
		C31.4,21.9,60.4,8.3,106.8,2.1z"/>
	
		<linearGradient id="SVGID_4_" gradientUnits="userSpaceOnUse" x1="58.6469" y1="-2160.5183" x2="118.6308" y2="-2160.5183" gradientTransform="matrix(1 0 0 1 0 2253.8896)">
		<stop  offset="2.584130e-03" style="stop-color:#EE3370"/>
		<stop  offset="0.4404" style="stop-color:#EE2B59"/>
		<stop  offset="0.8075" style="stop-color:#EE2449"/>
		<stop  offset="1" style="stop-color:#EE2142"/>
	</linearGradient>
	<path class="st4" d="M118.6,1.5c0,0-8.5,5-9,36.6c-0.7,39.7,7.4,147.1,7.4,147.1h-8.5c0,0-50.4-92.8-49.9-133.9
		C59.2,8.2,86.5,2.1,118.6,1.5z"/>
	<path class="st1" d="M133.6,2.1c0,0,23.7,17.6,13.3,90.9c-9.6,67.5-12.3,92.2-12.3,92.2l4,1.6c0,0,59.1-81.8,61.1-122.3
		C201.7,21.9,179.9,8.3,133.6,2.1z"/>
	<path class="st1" d="M121.7,1.5c0,0-5.1-3.8-13.6,0.6c-8.5,4.4-18.1,14.7-11,76.1c6.7,57.4,20.2,107,20.2,107h8.8
		c0,0,16.8-91.7,15.3-129.7C139.9,15.9,121.7,1.5,121.7,1.5z"/>
	
		<linearGradient id="SVGID_5_" gradientUnits="userSpaceOnUse" x1="121.7054" y1="-2160.5183" x2="172.4196" y2="-2160.5183" gradientTransform="matrix(1 0 0 1 0 2253.8896)">
		<stop  offset="2.584130e-03" style="stop-color:#EE3370"/>
		<stop  offset="0.4404" style="stop-color:#EE2B59"/>
		<stop  offset="0.8075" style="stop-color:#EE2449"/>
		<stop  offset="1" style="stop-color:#EE2142"/>
	</linearGradient>
	<path class="st5" d="M121.7,1.5c0,0,13.2,5.5,14.9,36.6c2.4,43.3-10.5,147.1-10.5,147.1h8.5c0,0,38.4-92.8,37.8-133.9
		C171.9,8.2,153.8,2.1,121.7,1.5z"/>
	
		<linearGradient id="SVGID_6_" gradientUnits="userSpaceOnUse" x1="120.1502" y1="-2071.4719" x2="120.1502" y2="-2054.4707" gradientTransform="matrix(1 0 0 1 0 2253.8896)">
		<stop  offset="2.584130e-03" style="stop-color:#EE3370"/>
		<stop  offset="0.4404" style="stop-color:#EE2B59"/>
		<stop  offset="0.8075" style="stop-color:#EE2449"/>
		<stop  offset="1" style="stop-color:#EE2142"/>
	</linearGradient>
	<path class="st6" d="M120.1,182.4c-18.6,0-30.8,3.5-27.8,7.2l8,9.8h39.5l8-9.8C151,186,138.8,182.4,120.1,182.4z"/>
	<ellipse class="st7" cx="120.1" cy="199.4" rx="19.8" ry="2.6"/>
	
		<radialGradient id="SVGID_7_" cx="2131.2329" cy="-2022.838" r="4.6923" gradientTransform="matrix(5.3307 0 0 1.6499 -11242.0205 3542.2441)" gradientUnits="userSpaceOnUse">
		<stop  offset="0.724" style="stop-color:#FFFFFF;stop-opacity:0"/>
		<stop  offset="1" style="stop-color:#BECBE8"/>
	</radialGradient>
	<ellipse class="st8" cx="120.1" cy="199.4" rx="19.8" ry="2.6"/>
	
		<linearGradient id="SVGID_8_" gradientUnits="userSpaceOnUse" x1="121.2075" y1="-2010.4595" x2="121.2075" y2="-2029.3804" gradientTransform="matrix(1 0 0 1 0 2253.8896)">
		<stop  offset="2.584130e-03" style="stop-color:#513432"/>
		<stop  offset="0.2363" style="stop-color:#533230"/>
		<stop  offset="1" style="stop-color:#582C28"/>
	</linearGradient>
	<path class="st9" d="M121.2,224.5c-10.8,0-19.3,0.9-19,2.1l4.3,16.8H136l4.3-16.8C140.5,225.5,132,224.5,121.2,224.5z"/>
	
		<linearGradient id="SVGID_9_" gradientUnits="userSpaceOnUse" x1="121.1851" y1="-2009.2443" x2="121.1851" y2="-2011.7366" gradientTransform="matrix(1 0 0 1 0 2253.8896)">
		<stop  offset="2.584130e-03" style="stop-color:#362221"/>
		<stop  offset="0.1262" style="stop-color:#372220"/>
		<stop  offset="1" style="stop-color:#3C1E1B"/>
	</linearGradient>
	<path class="st10" d="M135.9,243.4c-0.2,0.7-6.8,1.2-14.8,1.2c-7.9,0-14.6-0.5-14.8-1.2c-0.2-0.7,6.4-1.3,14.8-1.3
		C129.5,242.1,136.1,242.7,135.9,243.4z"/>
	<line class="st11" x1="103.6" y1="198.6" x2="100.7" y2="226.1"/>
	<line class="st11" x1="136.1" y1="198.2" x2="141.1" y2="226.5"/>
	<line class="st11" x1="125.5" y1="196.8" x2="127.4" y2="223.1"/>
	<line class="st11" x1="114.4" y1="196.8" x2="113.6" y2="224"/>
	<line class="st11" x1="127.1" y1="196.8" x2="134.2" y2="223.1"/>
	<line class="st11" x1="112.5" y1="196.8" x2="106.5" y2="224"/>
</g>
</svg>
