<svg version="1.1" id="icon-binoculars" xmlns="http://www.w3.org/2000/svg"
                xmlns:xlink="http://www.w3.org/1999/xlink" x="0px" y="0px" width="100px" height="50px"
                viewBox="0 0 100 50" style="enable-background:new 0 0 100 50;" xml:space="preserve">
                <style type="text/css">
                    .st0 {
                        fill: #ACD36E;
                    }

                    .st1 {
                        fill: #5B5050;
                    }
                </style>
                <title>nature-icons</title>
                <path class="st0" d="M40.5,11.7c3-1.8,6.8-2.9,10.9-2.9s7.9,1,10.9,2.9c-1.6,0.8-3.1,1.9-4.4,3.2L57.7,15l-0.3,0.3
	c-0.1,0.1-0.2,0.2-0.3,0.3c0,0-0.1,0.1-0.1,0.2c-3.7-0.8-7.5-0.8-11.2,0c0,0-0.1-0.1-0.1-0.2c-0.1-0.1-0.2-0.2-0.3-0.3
	c-0.1-0.1-0.2-0.2-0.3-0.3L45,14.8C43.6,13.6,42.1,12.5,40.5,11.7z"></path>
                <path class="st0" d="M80.1,14.1c-6.6,0-12,5.4-12,12s5.4,12,12,12c6.6,0,12-5.4,12-12c0,0,0,0,0,0C92.1,19.4,86.7,14.1,80.1,14.1z
	 M80.1,19.9c-3.4,0-6.2,2.8-6.2,6.2c0,1.1,0.3,2.1,0.8,3.1c0.3,0.6,0.1,1.4-0.5,1.7C74.1,31,73.8,31,73.6,31c-0.5,0-0.9-0.2-1.1-0.6
	c-2.4-4.2-1-9.5,3.2-11.9c1.3-0.8,2.8-1.2,4.4-1.2c0.7,0,1.3,0.6,1.3,1.3c0,0,0,0,0,0C81.4,19.3,80.8,19.8,80.1,19.9z">
                </path>
                <path class="st0" d="M22.7,14.1c-6.6,0-12,5.4-12,12s5.4,12,12,12s12-5.4,12-12C34.7,19.4,29.3,14.1,22.7,14.1z M30.3,30.4
	c-0.2,0.4-0.6,0.6-1.1,0.6c-0.2,0-0.4,0-0.6-0.2c-0.6-0.3-0.8-1.1-0.5-1.7c0,0,0,0,0,0c0.5-0.9,0.8-2,0.8-3.1c0-3.4-2.8-6.2-6.2-6.2
	c-0.7,0-1.3-0.6-1.3-1.3c0-0.7,0.6-1.3,1.3-1.3c4.8,0,8.7,3.8,8.8,8.6C31.5,27.5,31.1,29.1,30.3,30.4z"></path>
                <path class="st1" d="M21.2,10.5c-8,0-14.5,6.5-14.5,14.5s6.5,14.5,14.5,14.5S35.8,33,35.8,25C35.8,17,29.3,10.5,21.2,10.5z M21.2,37
	c-6.6,0-12-5.4-12-12s5.4-12,12-12s12,5.4,12,12v0C33.2,31.6,27.9,37,21.2,37z"></path>
                <path class="st1"
                    d="M21.2,16.2c-0.7,0-1.3,0.6-1.3,1.3s0.6,1.3,1.3,1.3c0,0,0,0,0,0c3.4,0,6.2,2.8,6.2,6.2c0,1.1-0.3,2.1-0.8,3.1
	c-0.3,0.6-0.1,1.4,0.5,1.7c0.2,0.1,0.4,0.2,0.6,0.2c0.5,0,0.9-0.2,1.1-0.6c2.4-4.2,1-9.5-3.2-11.9C24.3,16.6,22.8,16.2,21.2,16.2z">
                </path>
                <path class="st1" d="M78.6,3.7C73.2,3.7,68,5.8,64,9.5c-0.1,0-0.2,0-0.3,0.1C60.2,6.8,55.2,5.2,50,5.2S39.7,6.8,36.2,9.6
	c-0.1,0-0.2-0.1-0.3-0.1c-8.6-8.1-22.1-7.7-30.1,0.9s-7.7,22.1,0.9,30.1c8.2,7.7,21,7.7,29.2,0c3.4-0.8,6.4-2.7,8.6-5.4
	c0.7-0.9,1.3-1.8,1.9-2.9h7c0.1,0,0.1,0,0.2,0c2.1,4.2,6,7.2,10.5,8.3c8.6,8.1,22.1,7.6,30.1-0.9s7.6-22.1-0.9-30.1
	C89.3,5.7,84.1,3.7,78.6,3.7z M52.5,20.2h-5.3c-0.3-1.1-0.8-2.1-1.4-3.1c1.3-0.2,2.7-0.3,4-0.3c1.3,0,2.7,0.1,4,0.3
	C53.4,18,52.9,19.1,52.5,20.2z M39.1,10.6c3-1.8,6.8-2.9,10.9-2.9s7.9,1,10.9,2.9c-1.6,0.8-3.1,1.9-4.4,3.2L56.3,14L56,14.2
	c-0.1,0.1-0.2,0.2-0.3,0.3c0,0-0.1,0.1-0.1,0.2c-3.7-0.8-7.5-0.8-11.2,0c0,0-0.1-0.1-0.1-0.2c-0.1-0.1-0.2-0.2-0.3-0.3
	c-0.1-0.1-0.2-0.2-0.3-0.3l-0.2-0.2C42.2,12.5,40.7,11.4,39.1,10.6z M2.4,25c0-10.4,8.4-18.8,18.8-18.8S40,14.6,40,25
	s-8.4,18.8-18.8,18.8C10.9,43.7,2.5,35.3,2.4,25z M39.3,36.3c1.9-3,3-6.5,3.2-10.1V26c0-0.3,0-0.7,0-1c0-0.3,0-0.7,0-1v-0.2
	c-0.2-3.6-1.3-7.1-3.2-10.1c0.1,0.1,0.2,0.1,0.3,0.2c0.1,0.1,0.3,0.2,0.4,0.3c0.1,0.1,0.2,0.1,0.3,0.2c5.9,4.4,7.1,12.8,2.7,18.7
	C41.9,34.4,40.7,35.5,39.3,36.3z M47.4,29.7c0.5-1.5,0.7-3.1,0.7-4.7c0-0.8-0.1-1.6-0.2-2.3H52c-0.1,0.8-0.2,1.5-0.2,2.3
	c0,1.6,0.2,3.2,0.7,4.7L47.4,29.7z M54.3,25c0-4.2,2-8.2,5.3-10.7c0.1-0.1,0.2-0.1,0.3-0.2c0.1-0.1,0.2-0.2,0.4-0.3
	c0.2-0.1,0.2-0.1,0.3-0.2c-1.9,3-3,6.5-3.2,10.1V24c0,0.3,0,0.7,0,1c0,0.3,0,0.7,0,1v0.2c0.2,3.6,1.3,7.1,3.2,10.1
	C56.7,33.9,54.3,29.6,54.3,25z M78.6,43.8c-10,0-18.2-7.8-18.8-17.8l0,0c0-0.3,0-0.6,0-1c0-10.4,8.4-18.7,18.8-18.7
	C89,6.3,97.4,14.7,97.3,25C97.3,35.4,89,43.7,78.6,43.8L78.6,43.8z"></path>
                <path class="st1" d="M78.6,10.5c-8,0-14.5,6.5-14.5,14.5s6.5,14.5,14.5,14.5S93.2,33,93.2,25l0,0C93.2,17,86.7,10.5,78.6,10.5z
	 M78.6,37c-6.6,0-12-5.4-12-12s5.4-12,12-12c6.6,0,12,5.4,12,12v0C90.6,31.6,85.2,37,78.6,37z"></path>
                <path class="st1" d="M78.6,16.2c-4.8,0-8.7,3.9-8.8,8.7c0,1.5,0.4,3.1,1.2,4.4c0.2,0.4,0.6,0.6,1.1,0.6c0.2,0,0.4,0,0.6-0.2
	c0.6-0.3,0.8-1.1,0.5-1.7c0,0,0,0,0,0c-0.5-0.9-0.8-2-0.8-3.1c0-3.4,2.8-6.2,6.2-6.2c0.7,0,1.3-0.6,1.3-1.3c0,0,0,0,0,0
	C79.9,16.9,79.4,16.3,78.6,16.2C78.7,16.2,78.7,16.2,78.6,16.2z"></path>
            </svg>