 <svg version="1.1" id="icon-map" xmlns="http://www.w3.org/2000/svg"
                xmlns:xlink="http://www.w3.org/1999/xlink" x="0px" y="0px" width="100px" height="100px"
                viewBox="0 0 100 100" style="enable-background:new 0 0 100 100;" xml:space="preserve">
                <style type="text/css">
                    .st0 {
                        fill: #ACD36E;
                    }

                    .st1 {
                        fill: #5B5050;
                    }
                </style>
                <title>nature-icons</title>
                <path class="st0" d="M66.9,4.6c-12.2,0-22,9.9-22,22c0,5,4,14.8,11.6,28.1c4.1,7.3,8.4,13.8,10.4,17c1.9-2.8,5.4-8.4,9.1-14.8
	c0,0,0-0.1,0.1-0.1c0.3-0.4,0.5-0.8,0.7-1.2c0.1-0.2,0.3-0.5,0.4-0.8c0-0.1,0.1-0.2,0.2-0.3c7.1-12.4,11-21.7,11.5-27
	c0-0.3,0.1-0.7,0-1C88.9,14.4,79,4.6,66.9,4.6z M66.5,37.9c-5.1,0-9.2-4.1-9.2-9.2s4.1-9.2,9.2-9.2c5.1,0,9.2,4.1,9.2,9.2
	C75.7,33.8,71.6,37.9,66.5,37.9z"></path>
                <path class="st1" d="M97.9,18.9c-0.5-0.3-1.1-0.3-1.6,0L90,22.1C88.3,8.3,75.7-1.5,61.9,0.2C50.4,1.6,41.4,10.7,40,22.2l-6.7-3.3h0
	c0,0-0.1,0-0.2,0c-0.1,0-0.1,0-0.1,0c-0.1,0-0.1,0-0.2,0h-0.5c0,0-0.1,0-0.2,0c0,0,0,0-0.1,0L1,30.7c-0.6,0.2-1,0.8-1,1.5v64.5
	c0,0.5,0.3,1,0.7,1.3c0.4,0.3,1,0.4,1.5,0.1l27.8-11l34.5,12.7c0,0,0.1,0,0.1,0c0,0,0.1,0,0.1,0c0.1,0,0.2,0,0.3,0
	c0.1,0,0.2,0,0.3,0c0,0,0.1,0,0.1,0c0.1,0,0.1,0,0.1,0l32-11.4c0.6-0.2,1.1-0.8,1-1.5V20.3C98.7,19.8,98.4,19.2,97.9,18.9z M65,3.2
	c12.2,0,22,9.9,22,22c0,0.3,0,0.7,0,1c-0.5,5.3-4.4,14.6-11.5,27c0,0.1-0.1,0.2-0.2,0.3c-0.1,0.3-0.3,0.5-0.4,0.8
	c-0.2,0.4-0.5,0.8-0.7,1.2c0,0,0,0.1-0.1,0.1C70.4,62,66.9,67.5,65,70.3c-2.1-3.1-6.3-9.7-10.4-17C47,40,43,30.3,43,25.2
	C43,13.1,52.9,3.2,65,3.2z M66.7,96.1V85.5c0-0.9-0.7-1.6-1.6-1.6c-0.9,0-1.6,0.7-1.6,1.6v10.7L31.6,84.4V61.8
	c0-0.9-0.7-1.6-1.6-1.6c-0.9,0-1.6,0.7-1.6,1.6v22.6l-25.2,10V60.2c0.2-0.2,0.5-0.4,0.7-0.6C4.6,59,4.7,58,4.1,57.4c0,0,0,0,0,0
	c-0.2-0.3-0.6-0.5-1-0.5V33.3l27.7-10.7v9.6c0,0.9,0.7,1.6,1.6,1.6c0.9,0,1.6-0.7,1.6-1.6l0,0v-9.3l5.6,2.8c0,0.2,0,0.4,0,0.6v0.1
	c0,0.3,0,0.6,0.1,0.9c0,0.1,0,0.2,0,0.4l0.1,0.9c0.9,4.3,3.1,10.1,6.8,17.3c0.2,0.4,0.4,0.8,0.6,1.2l0.3,0.6
	c4.8,9.1,10.1,18,15.9,26.5c0.3,0.4,0.8,0.7,1.3,0.7c0.3,0,0.5-0.1,0.8-0.2c0.2-0.1,0.4-0.3,0.6-0.5c0.6-0.9,9.1-13.5,15.8-26.4
	c0.1-0.2,0.2-0.5,0.4-0.8c0.1-0.2,0.3-0.6,0.5-0.9c3.8-7.4,6-13.2,6.9-17.6c0.1-0.2,0.1-0.4,0.1-0.6c0-0.2,0-0.3,0.1-0.5
	c0.1-0.3,0.1-0.6,0.1-0.9v-0.2c0-0.2,0-0.5,0-0.7l5.2-2.6v35.8c-0.2,0.2-0.5,0.5-0.7,0.7c-0.7,0.6-0.7,1.6-0.1,2.3
	c0.2,0.2,0.5,0.4,0.8,0.5V86L66.7,96.1z"></path>
                <path class="st1" d="M64.7,39.7c6.8,0,12.4-5.5,12.4-12.4S71.6,15,64.7,15s-12.4,5.5-12.4,12.4C52.4,34.2,57.9,39.7,64.7,39.7z
	 M64.7,18.2c5.1,0,9.2,4.1,9.2,9.2s-4.1,9.2-9.2,9.2c-5.1,0-9.2-4.1-9.2-9.2C55.5,22.3,59.7,18.2,64.7,18.2z"></path>
                <path class="st1" d="M75.7,70.6c-0.5,0.1-1,0.2-1.6,0.3c-0.9,0.2-1.4,1-1.3,1.9c0.1,0.8,0.8,1.3,1.6,1.3c0.1,0,0.2,0,0.3,0
	c0.6-0.1,1.2-0.2,1.8-0.4c0.9-0.2,1.4-1.1,1.2-2C77.4,70.9,76.6,70.4,75.7,70.6z"></path>
                <path class="st1" d="M87.5,65.2c-1.1,0.8-2.2,1.4-3.3,2c-0.8,0.4-1,1.4-0.6,2.2c0.3,0.5,0.8,0.8,1.4,0.8c0.3,0,0.5-0.1,0.8-0.2
	c1.2-0.7,2.4-1.4,3.6-2.2c0.7-0.5,0.9-1.5,0.3-2.2C89.1,65,88.2,64.8,87.5,65.2z"></path>
                <path class="st1" d="M11.2,50.5c-1,0.6-1.9,1.2-2.9,1.9c-0.7,0.5-0.9,1.5-0.4,2.2c0.3,0.4,0.8,0.7,1.3,0.7c0.3,0,0.6-0.1,0.9-0.3
	c0.9-0.6,1.9-1.2,2.8-1.8c0.8-0.4,1.1-1.4,0.6-2.2c-0.4-0.8-1.4-1.1-2.2-0.6C11.3,50.4,11.2,50.4,11.2,50.5z"></path>
                <path class="st1" d="M22,46.1c-1.2,0.2-2.3,0.5-3.4,0.9c-0.8,0.3-1.3,1.2-1,2c0,0,0,0,0,0c0.2,0.6,0.8,1.1,1.5,1.1
	c0.2,0,0.4,0,0.5-0.1c1-0.3,2-0.6,3-0.8c0.9-0.2,1.4-1,1.3-1.9C23.7,46.5,22.9,45.9,22,46.1z"></path>
                <path class="st1" d="M50.3,62.8c-0.2-0.1-0.4-0.3-0.6-0.5c-0.5-0.4-1-0.8-1.5-1.3l0,0l-0.3-0.3c-0.6-0.6-1.7-0.6-2.3,0
	c-0.6,0.6-0.6,1.7,0,2.3c0.1,0.1,0.2,0.2,0.3,0.3c0.6,0.5,1.2,1.1,1.8,1.5c0.2,0.1,0.4,0.3,0.5,0.4c0.3,0.2,0.6,0.3,1,0.3
	c0.5,0,1-0.2,1.2-0.6C51,64.4,51,63.4,50.3,62.8C50.3,62.9,50.3,62.9,50.3,62.8z"></path>
                <path class="st1" d="M33.9,47.3c-1.1-0.5-2.3-0.9-3.5-1.1c-0.9-0.2-1.7,0.4-1.8,1.3c-0.1,0.8,0.3,1.6,1.1,1.8c1,0.2,1.9,0.5,2.9,1
	c0.2,0.1,0.4,0.1,0.7,0.1c0.6,0,1.2-0.4,1.5-1C35.1,48.6,34.7,47.6,33.9,47.3C33.9,47.3,33.9,47.3,33.9,47.3z"></path>
                <path class="st1" d="M40.4,52.5c-0.6-0.6-1.7-0.6-2.3,0c-0.6,0.6-0.6,1.5-0.1,2.2c0.8,0.8,1.5,1.7,2.2,2.5c0.3,0.4,0.7,0.6,1.2,0.6
	c0.4,0,0.8-0.1,1-0.4c0.7-0.5,0.7-1.5,0.2-2.2c0,0,0,0-0.1-0.1C41.9,54.3,41.2,53.4,40.4,52.5z"></path>
                <path class="st1" d="M57.9,68.3c-0.5-0.3-1-0.6-1.5-0.9c-0.7-0.5-1.7-0.2-2.2,0.5c-0.5,0.7-0.2,1.7,0.5,2.2l0,0
	c0.5,0.3,1,0.6,1.4,0.9c0.3,0.2,0.6,0.2,0.9,0.2c0.5,0,1-0.3,1.3-0.7C58.8,69.7,58.6,68.7,57.9,68.3C57.9,68.3,57.9,68.3,57.9,68.3z
	"></path>
            </svg>