<svg version="1.1" id="icon-mountains" xmlns="http://www.w3.org/2000/svg"
                xmlns:xlink="http://www.w3.org/1999/xlink" width="100px" height="50px" x="0px" y="0px"
                viewBox="0 0 100 50" style="enable-background:new 0 0 100 50;" xml:space="preserve">
                <style type="text/css">
                    .st0 {
                        fill: #ACD36E;
                    }

                    .st1 {
                        fill: #5B5050;
                    }
                </style>
                <title>nature-icons</title>
                <path class="st0" d="M64.7,16l8.8,10.7l-3.9-1.1c-0.5-0.1-1.1,0-1.4,0.5l-3.3,4.7l-3.6-4.7c-0.3-0.4-0.9-0.6-1.4-0.4l-4.2,1.2
	L64.7,16z"></path>
                <path class="st0" d="M39.5,12.7l14.1,17l-8-2.2c-0.5-0.1-1.1,0-1.4,0.5l-4.7,6.7L34.2,28c-0.3-0.4-0.9-0.6-1.4-0.4l-7.3,2.1
	L39.5,12.7z"></path>
                <path class="st1" d="M98.7,47.3H95L65.5,12.5c-0.2-0.3-0.6-0.5-1-0.5l0,0c-0.4,0-0.8,0.2-1,0.4L53,24.7L39.8,9.1
	c-0.2-0.3-0.6-0.5-1-0.5l0,0c-0.4,0-0.8,0.2-1,0.4L5.2,47.2H1.3c-0.7,0-1.3,0.5-1.3,1.2c0,0.6,0.6,1.2,1.3,1.2h97.4
	c0.7,0,1.3-0.5,1.3-1.1c0,0,0,0,0,0C100,47.8,99.4,47.3,98.7,47.3C98.7,47.3,98.7,47.3,98.7,47.3z M72.1,47.3L55.9,28.1l3.5-1
	l4.3,5.4c0.2,0.3,0.7,0.5,1.1,0.5h0c0.4,0,0.9-0.2,1.1-0.5l3.9-5.4l6.4,1.7l15.6,18.5L72.1,47.3L72.1,47.3z M64.5,15l9,10.7
	l-3.9-1.1c-0.6-0.1-1.2,0-1.5,0.5l-3.4,4.7l-3.7-4.7c-0.3-0.4-0.9-0.6-1.5-0.4l-4.3,1.2L64.5,15z M38.8,11.7l14.4,17L45,26.5
	c-0.6-0.1-1.2,0-1.5,0.5l-4.8,6.7L33.4,27c-0.3-0.4-0.9-0.6-1.5-0.4l-7.4,2.1L38.8,11.7z M21.7,31.8l10-2.8l5.9,7.5
	c0.2,0.3,0.7,0.5,1.1,0.5h0c0.4,0,0.9-0.2,1.1-0.5l5.4-7.4l10.6,2.8l13.1,15.5H8.5L21.7,31.8z"></path>
                <path class="st1" d="M60.4,2.7h1.4c0.7,0,1.3-0.5,1.3-1.1c0,0,0,0,0,0c0-0.6-0.6-1.2-1.3-1.2c0,0,0,0,0,0h-1.4
	c-0.7,0-1.3,0.5-1.3,1.1c0,0,0,0,0,0C59.1,2.1,59.6,2.7,60.4,2.7C60.4,2.7,60.4,2.7,60.4,2.7z"></path>
                <path class="st1" d="M36.3,2.7c3.2,0,6.5,0,9.7,0c3.2,0,6.5,0,9.7,0c0.7,0,1.2-0.5,1.2-1.1c0,0,0-0.1,0-0.1c0-0.6-0.6-1.1-1.2-1.1
	c0,0,0,0,0,0c-6.5,0-13,0-19.5,0c-0.7,0-1.3,0.5-1.3,1.1c0,0,0,0,0,0C35.1,2.2,35.6,2.7,36.3,2.7z"></path>
                <path class="st1" d="M76.2,7.1h1.4c0.7,0,1.3-0.5,1.3-1.2c0-0.6-0.6-1.2-1.3-1.2h-1.4c-0.7,0-1.3,0.5-1.3,1.2
	C74.9,6.5,75.5,7.1,76.2,7.1z"></path>
                <path class="st1" d="M52.2,4.8L52.2,4.8c-0.7,0-1.3,0.5-1.3,1.1c0,0.6,0.5,1.1,1.2,1.2l0,0c3.2,0,6.5,0,9.7,0c3.2,0,6.5,0,9.7,0
	c0.7,0,1.2-0.5,1.2-1.1c0,0,0-0.1,0-0.1c0-0.6-0.6-1.1-1.2-1.1c0,0,0,0,0,0C65.2,4.8,58.6,4.8,52.2,4.8z"></path>
                <path class="st1"
                    d="M44.6,4.8c-0.7,0-1.3,0.5-1.3,1.2c0,0.6,0.6,1.2,1.3,1.2H46c0.7,0,1.3-0.5,1.3-1.2S46.7,4.8,46,4.8L44.6,4.8z">
                </path>
                <path class="st1" d="M20.5,7.1c3.2,0,6.5,0,9.7,0s6.5,0,9.7,0c0.7,0,1.2-0.5,1.2-1.1c0,0,0-0.1,0-0.1c0-0.6-0.6-1.1-1.3-1.1
	c0,0,0,0,0,0l0,0c-6.5,0-13,0-19.5,0c-0.7,0-1.3,0.5-1.3,1.1c0,0,0,0,0,0C19.2,6.5,19.8,7,20.5,7.1z"></path>
            </svg>